# xmcd
#
# Track frame offsets:
#  150
#  12444
#  24816
#  35214
#  47379
#  58410
#  77127
#  92907
#
# Disc length: 1595 seconds
#
# Revision: 0
# Processed by: cddbd v1.5.2PL0 Copyright (c) Steve Scherf et al.
# Submitted via: AltoMP3_Maker 3.0
#
DISCID=60063908
DTITLE=Ernie Coffin - Goin' Fishin'
DYEAR=1900
DGENRE=
TTITLE0=Goin' Fishin'
TTITLE1=Missing You
TTITLE2=Long Lost Child
TTITLE3=Alien
TTITLE4=Battle With The Beast
TTITLE5=Home
TTITLE6=Wanted Out
TTITLE7=Who Sets The Rulz
EXTD=
EXTT0=
EXTT1=
EXTT2=
EXTT3=
EXTT4=
EXTT5=
EXTT6=
EXTT7=
PLAYORDER=
